<?xml version="1.0" encoding="UTF-8" standalone="no"?>
<!DOCTYPE svg PUBLIC "-//W3C//DTD SVG 1.1//EN"
 "http://www.w3.org/Graphics/SVG/1.1/DTD/svg11.dtd">
<!-- Generated by graphviz version 2.40.1 (20161225.0304)
 -->
<!-- Title: D Pages: 1 -->
<svg width="98pt" height="188pt"
 viewBox="0.00 0.00 98.00 188.00" xmlns="http://www.w3.org/2000/svg" xmlns:xlink="http://www.w3.org/1999/xlink">
<g id="graph0" class="graph" transform="scale(1 1) rotate(0) translate(4 184)">
<title>D</title>
<polygon fill="#ffffff" stroke="transparent" points="-4,4 -4,-184 94,-184 94,4 -4,4"/>
<!-- sum -->
<g id="node1" class="node">
<title>sum</title>
<ellipse fill="none" stroke="#000000" cx="45" cy="-162" rx="18" ry="18"/>
<text text-anchor="middle" x="45" y="-157.8" font-family="Times,serif" font-size="14.00" fill="#000000">+</text>
</g>
<!-- cos -->
<g id="node2" class="node">
<title>cos</title>
<ellipse fill="none" stroke="#000000" cx="18" cy="-90" rx="18" ry="18"/>
<text text-anchor="middle" x="18" y="-85.8" font-family="Times,serif" font-size="14.00" fill="#000000">cos</text>
</g>
<!-- sum&#45;&gt;cos -->
<g id="edge1" class="edge">
<title>sum&#45;&gt;cos</title>
<path fill="none" stroke="#000000" d="M38.6014,-144.937C35.407,-136.4186 31.471,-125.9227 27.8982,-116.3952"/>
<polygon fill="#000000" stroke="#000000" points="31.1411,-115.0749 24.3527,-106.9405 24.5868,-117.5328 31.1411,-115.0749"/>
</g>
<!-- 5 -->
<g id="node4" class="node">
<title>5</title>
<ellipse fill="none" stroke="#000000" cx="72" cy="-90" rx="18" ry="18"/>
<text text-anchor="middle" x="72" y="-85.8" font-family="Times,serif" font-size="14.00" fill="#000000">5</text>
</g>
<!-- sum&#45;&gt;5 -->
<g id="edge2" class="edge">
<title>sum&#45;&gt;5</title>
<path fill="none" stroke="#000000" d="M51.3986,-144.937C54.593,-136.4186 58.529,-125.9227 62.1018,-116.3952"/>
<polygon fill="#000000" stroke="#000000" points="65.4132,-117.5328 65.6473,-106.9405 58.8589,-115.0749 65.4132,-117.5328"/>
</g>
<!-- x -->
<g id="node3" class="node">
<title>x</title>
<ellipse fill="none" stroke="#000000" cx="18" cy="-18" rx="18" ry="18"/>
<text text-anchor="middle" x="18" y="-13.8" font-family="Times,serif" font-size="14.00" fill="#000000">x</text>
</g>
<!-- cos&#45;&gt;x -->
<g id="edge3" class="edge">
<title>cos&#45;&gt;x</title>
<path fill="none" stroke="#000000" d="M18,-71.8314C18,-64.131 18,-54.9743 18,-46.4166"/>
<polygon fill="#000000" stroke="#000000" points="21.5001,-46.4132 18,-36.4133 14.5001,-46.4133 21.5001,-46.4132"/>
</g>
</g>
</svg>
